<svg xmlns="http://www.w3.org/2000/svg" width="200" height="200" viewBox="0 0 200 200">
  <g id="Group_1492" data-name="Group 1492" transform="translate(0)">
    <rect id="Rectangle_6" data-name="Rectangle 6" width="200" height="200" rx="5" transform="translate(0)" fill="#2ac7e3"/>
    <path id="Union_41" data-name="Union 41" d="M74.374,113.905c-1.246-1.127-2.554-2.253-3.8-3.5-1,.939-1.931,1.815-2.927,2.69C55.314,123.916,42.606,128.421,35.07,124.04c-7.289-4.191-9.594-16.579-6.666-32.158q.467-2.535,1.122-5.068c-1.309-.376-2.555-.751-3.8-1.188C10.216,80.246,0,71.487,0,62.726c0-8.445,9.531-16.642,24.417-21.9C26.1,40.266,27.844,39.7,29.65,39.2c-.437-1.627-.748-3.19-1.059-4.693-3.115-15.83-.935-28.467,6.416-32.721,7.661-4.5,20.369.312,33.138,11.637.748.688,1.5,1.439,2.3,2.188,1.184-1.125,2.3-2.252,3.489-3.252C86.023,1.789,98.046-2.655,105.394,1.6c7.661,4.379,9.9,17.893,6.479,34.6-.187,1.065-.437,2.066-.685,3.129,1.557.439,3.114.939,4.546,1.439,15.2,5.256,25.041,13.452,24.917,22.086,0,8.822-10.527,17.518-26.661,22.9-.872.251-1.744.563-2.616.813.374,1.251.622,2.5.872,3.754,3.239,16.205.748,29.469-6.79,33.849a12.825,12.825,0,0,1-6.562,1.646C91.979,125.812,83.21,121.531,74.374,113.905Zm12.21-22.962a146.2,146.2,0,0,1-11.773,15.015c1.183,1.19,2.366,2.253,3.55,3.254,10.277,8.884,19.745,12.2,24.168,9.635,2.057-1.188,3.8-4.191,4.611-8.759.933-5.005.685-11.512-.748-18.645-.187-1.127-.437-2.252-.748-3.441A150.744,150.744,0,0,1,86.584,90.944Zm-52.2,2c-2.553,13.325-.685,23.274,3.737,25.84,2.057,1.188,5.483,1.188,9.842-.376,4.8-1.69,10.279-5.068,15.76-9.886.935-.751,1.806-1.627,2.741-2.5A152.5,152.5,0,0,1,54.379,91.007a147.466,147.466,0,0,1-19-2.754C35.008,89.88,34.7,91.444,34.384,92.946ZM70.637,101.7c2.742-3.066,5.481-6.444,8.223-10.2-2.742.125-5.607.188-8.471.188q-4.206,0-8.222-.188A130.883,130.883,0,0,0,70.637,101.7ZM57.555,40.642c-2.366,3.44-4.671,7.069-6.851,10.886-2.181,3.754-4.174,7.571-5.981,11.386,1.869,3.754,3.863,7.571,6.042,11.451,2.181,3.754,4.485,7.444,6.853,10.947,4.111.251,8.409.376,12.77.376,4.422,0,8.721-.125,12.893-.437,2.243-3.441,4.548-7.132,6.728-10.949s4.235-7.7,6.042-11.449c-1.807-3.692-3.863-7.508-6.042-11.325s-4.485-7.446-6.79-10.886c-4.174-.314-8.472-.5-12.832-.5S61.729,40.328,57.555,40.642ZM37,82.5a122.739,122.739,0,0,0,12.956,2.066c-1.5-2.378-2.989-4.756-4.422-7.258-1.37-2.439-2.742-4.881-3.987-7.32A127.592,127.592,0,0,0,37,82.5Zm58.24-5.256c-1.433,2.5-2.866,4.881-4.3,7.2a127.525,127.525,0,0,0,13.145-2.252,125.383,125.383,0,0,0-4.735-12.451Q97.392,73.487,95.241,77.241ZM26.348,46.586c-12.706,4.5-20.367,11.074-20.367,16.2,0,2.378,1.744,5.381,5.231,8.383a52.465,52.465,0,0,0,16.445,8.759c1.122.376,2.3.69,3.487,1.065A152.357,152.357,0,0,1,38.06,62.914a138.585,138.585,0,0,1-6.853-17.83Q28.686,45.739,26.348,46.586Zm76.431,16.2a144.089,144.089,0,0,1,7.1,17.893c.811-.249,1.62-.5,2.367-.751,13.89-4.63,22.487-11.7,22.55-17.205,0-5.13-7.975-11.762-20.993-16.267-1.307-.437-2.74-.876-4.172-1.313A144.477,144.477,0,0,1,102.779,62.789ZM95.18,48.4c1.433,2.5,2.8,4.944,4.049,7.383a113.152,113.152,0,0,0,4.485-12.2A127.652,127.652,0,0,0,90.882,41.33C92.376,43.644,93.809,45.959,95.18,48.4ZM37.062,43.52c1.246,4,2.741,8.071,4.485,12.262,1.246-2.439,2.617-4.881,3.987-7.32s2.8-4.817,4.3-7.132C45.347,41.893,41.112,42.644,37.062,43.52Zm40.8-26.591c-1.059.939-2.119,1.939-3.178,2.941a136.311,136.311,0,0,1,11.9,14.891,140.493,140.493,0,0,1,18.81,3c.25-.939.437-1.878.624-2.817,2.927-14.389,1.122-25.4-3.613-28.153A6.867,6.867,0,0,0,99,6.015C93.906,6.016,86.1,9.747,77.863,16.929ZM38,6.982c-4.423,2.564-6.166,12.825-3.55,26.34.311,1.439.624,2.876,1,4.379a151.757,151.757,0,0,1,18.812-2.939A133.779,133.779,0,0,1,66.214,19.87c-.685-.69-1.433-1.314-2.118-1.941-8.678-7.725-17-11.8-22.446-11.8A7.207,7.207,0,0,0,38,6.982ZM78.735,34.259A117.1,117.1,0,0,0,70.45,24.187c-2.8,3.064-5.605,6.444-8.346,10.072,2.741-.125,5.481-.188,8.285-.188S75.994,34.134,78.735,34.259ZM57.924,63.04A12.583,12.583,0,1,1,70.507,75.677,12.577,12.577,0,0,1,57.924,63.04Z" transform="translate(30.093 37.802)" fill="#fff"/>
  </g>
</svg>
